Coordinates
version=1
nRows=10
nColumns=28
inDegrees=yes

Units are S.I. units (second, meters, Newtons, ...)
Angles are in degrees.

endheader
time	pelvis_tilt	pelvis_list	pelvis_rotation	pelvis_tx	pelvis_ty	pelvis_tz	hip_flexion_r	hip_adduction_r	hip_rotation_r	knee_angle_r	ankle_angle_r	subtalar_angle_r	mtp_angle_r	hip_flexion_l	hip_adduction_l	hip_rotation_l	knee_angle_l	socket_flexion	socket_adduction	socket_rotation	socket_tx	socket_ty	socket_tz	foot_flex	lumbar_extension	lumbar_bending	lumbar_rotation
      0.31666667	      1.50116688	     -1.35823324	     -4.07074756	     -0.42069916	      1.03052893	      0.26475557	     15.24289461	      0.86782874	     -3.53475459	    -60.93322583	     12.03162742	    -15.63498092	     -6.24521367	      0.10579981	     -0.97294843	     -9.40434510	    -10.35380710	      0.00000000	      0.00000000	      0.00000000	      0.00000000	      0.00000000	      0.00000000	     -0.37693962	    -11.08525841	     -1.59163952	      2.18441985
      0.32083333	      1.68326097	     -1.58586051	     -3.67942491	     -0.41558750	      1.03123993	      0.26407592	     15.42879054	      0.99468080	     -3.99416090	    -60.26961184	     12.63363731	    -15.32964504	     -7.34154636	     -0.39843897	     -1.17187574	     -9.03743303	    -10.30933256	      0.00000000	      0.00000000	      0.00000000	      0.00000000	      0.00000000	      0.00000000	     -0.25954465	    -11.36263307	     -1.23097826	      1.56217469
      0.32500000	      1.66671333	     -1.64762876	     -3.60045214	     -0.41040506	      1.03152815	      0.26391446	     15.91037255	      1.06247483	     -4.06156019	    -59.68716897	     12.82993099	    -15.34601608	     -7.36158838	     -0.75185738	     -1.20539920	     -9.00995225	    -10.20230202	      0.00000000	      0.00000000	      0.00000000	      0.00000000	      0.00000000	      0.00000000	     -0.14505056	    -11.36677910	     -1.15419776	      1.57136361
      0.32916667	      1.66087118	     -1.97411453	     -3.32897592	     -0.40528429	      1.03199196	      0.26346434	     16.26300368	      1.39523938	     -4.32183043	    -58.90841581	     13.23883056	    -15.25644108	     -7.57327830	     -1.07207299	     -1.53997111	     -8.77614050	    -10.15578528	      0.00000000	      0.00000000	      0.00000000	      0.00000000	      0.00000000	      0.00000000	     -0.01371017	    -11.43162151	     -0.69863577	      1.43871270
      0.33333333	      1.66509525	     -2.01350533	     -3.24170215	     -0.40015100	      1.03223994	      0.26333262	     16.70138090	      1.41571326	     -4.43772543	    -58.26379972	     13.41149434	    -15.28424293	     -7.61356025	     -1.43089761	     -1.55483389	     -8.74681341	    -10.06903332	      0.00000000	      0.00000000	      0.00000000	      0.00000000	      0.00000000	      0.00000000	      0.08370109	    -11.45797944	     -0.65075730	      1.38758753
      0.33750000	      1.72237336	     -2.35093448	     -2.91450408	     -0.39500587	      1.03275276	      0.26281586	     16.94017759	      1.71523666	     -4.80953457	    -57.38034099	     13.78001661	    -15.24363443	     -7.90259099	     -1.81502298	     -1.90542710	     -8.42525909	    -10.01411730	      0.00000000	      0.00000000	      0.00000000	      0.00000000	      0.00000000	      0.00000000	      0.21384585	    -11.59664900	     -0.17407945	      1.08884352
      0.34166667	      1.83471463	     -2.54530792	     -2.62373156	     -0.38986889	      1.03321823	      0.26233504	     17.14041148	      1.84483521	     -5.13556169	    -56.52379358	     14.05450345	    -15.24561499	     -8.35381238	     -2.26305463	     -2.09165155	     -8.17907753	     -9.94113064	      0.00000000	      0.00000000	      0.00000000	      0.00000000	      0.00000000	      0.00000000	      0.33393192	    -11.77560357	      0.13120364	      0.75384400
      0.34583333	      1.83128092	     -2.53053526	     -2.56343126	     -0.38482871	      1.03333518	      0.26226486	     17.56893804	      1.81056100	     -5.22067575	    -55.80855205	     14.18456224	    -15.28101966	     -8.39328159	     -2.60026197	     -2.05308346	     -8.18891105	     -9.86783037	      0.00000000	      0.00000000	      0.00000000	      0.00000000	      0.00000000	      0.00000000	      0.42652184	    -11.80815633	      0.11522201	      0.72836730
      0.35000000	      2.10065023	     -2.85364502	     -2.20838989	     -0.37970140	      1.03401744	      0.26166492	     17.52956678	      2.04229205	     -5.67294239	    -54.82333706	     14.77926713	    -15.23020102	    -10.05164828	     -3.22889295	     -2.38484640	     -7.88606913	     -9.75897957	      0.00000000	      0.00000000	      0.00000000	      0.00000000	      0.00000000	      0.00000000	      0.53243368	    -12.17642823	      0.59130818	      0.28030076
      0.35416667	      2.06941270	     -2.83185005	     -2.15443579	     -0.37469079	      1.03405897	      0.26161867	     17.95298800	      2.00795375	     -5.74362929	    -54.02028557	     14.91519257	    -15.26791979	    -10.07937915	     -3.53694569	     -2.34724422	     -7.87648451	     -9.69074329	      0.00000000	      0.00000000	      0.00000000	      0.00000000	      0.00000000	      0.00000000	      0.64239314	    -12.18146212	      0.56602919	      0.28811552
